<?xml version="1.0" encoding="UTF-8"?>
<svg version="1.1" xmlns="http://www.w3.org/2000/svg" width="80" height="86">
<path d="M0 0 C5.28121439 2.18641023 10.10443611 5.06593264 15 8 C16.6275995 8.96224748 18.25520387 9.92448672 19.8828125 10.88671875 C23.2997626 12.91689515 26.70269954 14.96843344 30.09765625 17.03515625 C33.18871772 18.915224 36.29496018 20.75911051 39.43359375 22.55859375 C40.11357422 22.95248291 40.79355469 23.34637207 41.49414062 23.75219727 C42.73894045 24.47139756 43.98857339 25.18233512 45.24414062 25.88256836 C49.92746628 28.61202679 53.80378589 31.92319929 55.8125 37.08984375 C56.3261183 42.15112411 55.72779741 45.53633151 53 50 C47.66365309 55.45362926 40.2604616 58.78152211 33.63671875 62.4296875 C30.28619643 64.27659278 26.9602276 66.16158039 23.64453125 68.0703125 C22.72889404 68.59737793 21.81325684 69.12444336 20.86987305 69.66748047 C19.09039008 70.69341737 17.31184684 71.72098665 15.53442383 72.75048828 C11.28468676 75.19380991 7.00734244 77.57815195 2.6640625 79.8515625 C1.88240723 80.26229004 1.10075195 80.67301758 0.29541016 81.09619141 C-3.61885941 82.63741944 -7.0728348 82.37413237 -11 81 C-14.79895866 78.7954651 -17.32501175 76.06776206 -19 72 C-20.91269 61.61501508 -20.22032075 50.46263013 -20.24023438 39.93579102 C-20.25001049 36.80914392 -20.28114932 33.68313622 -20.3125 30.55664062 C-20.31902569 28.54427467 -20.32427786 26.5319041 -20.328125 24.51953125 C-20.3404718 23.59743362 -20.3528186 22.675336 -20.36553955 21.72529602 C-20.3452852 15.7757846 -19.62560865 10.40713686 -17 5 C-11.74996849 -0.12198196 -7.16263025 -1.21045721 0 0 Z " fill="#B47F1D" transform="translate(21,3)"/>
<path d="M0 0 C0.66 0.33 1.32 0.66 2 1 C1.2575 1.6496875 1.2575 1.6496875 0.5 2.3125 C-1.33218192 3.99740483 -1.33218192 3.99740483 -1 7 C-0.38511719 7.17015625 0.22976562 7.3403125 0.86328125 7.515625 C7.40495868 9.4770849 7.40495868 9.4770849 10.0625 11.8125 C11.30860897 14.7200876 11.33322926 16.86764494 11 20 C9 23 9 23 5.9375 24 C4.968125 24.33 3.99875 24.66 3 25 C2.67 25.99 2.34 26.98 2 28 C1.34 28 0.68 28 0 28 C-2.48568344 32.80565465 -3.63867401 36.52565132 -3 42 C-1.45326707 44.93936332 0.30464903 47.05176124 3 49 C13.10911534 50.65723202 21.980016 45.12999124 30.5703125 40.42578125 C34.33682816 38.85997463 36.96088183 38.65249482 41 39 C42 40 42 40 42.4375 43.0625 C41.76286903 49.13417874 38.60658172 52.62734228 34.171875 56.6640625 C25.91448147 63.20955737 17.46239618 67.15153483 6.875 67.125 C5.32425781 67.12886719 5.32425781 67.12886719 3.7421875 67.1328125 C1 67 1 67 -2 66 C-2 67.98 -2 69.96 -2 72 C-1.34 72.33 -0.68 72.66 0 73 C0.33 73.66 0.66 74.32 1 75 C6.72538916 76.26134052 12.28596536 76.1179633 18 75 C18 74.01 18 73.02 18 72 C19.65 72 21.3 72 23 72 C23.495 70.515 23.495 70.515 24 69 C26.72265625 68.05078125 26.72265625 68.05078125 30.0625 67.3125 C31.16722656 67.06113281 32.27195313 66.80976562 33.41015625 66.55078125 C34.26480469 66.36902344 35.11945312 66.18726562 36 66 C32.63603174 69.60995271 28.63855414 71.7193849 24.375 74.125 C23.60542969 74.58003906 22.83585937 75.03507812 22.04296875 75.50390625 C16.8150285 78.4550216 12.0752299 80.19346422 6 80 C1.28085949 78.39727303 -1.41211735 76.25152149 -4 72 C-6.2105489 65.20546363 -6.30698064 58.36130004 -6.30078125 51.28125 C-6.30506638 50.1833313 -6.3093515 49.0854126 -6.31376648 47.95422363 C-6.31948119 45.64478237 -6.32003127 43.33532313 -6.31567383 41.02587891 C-6.31250939 37.51042805 -6.33602548 33.99581613 -6.36132812 30.48046875 C-6.3636011 28.22656355 -6.36430463 25.97265611 -6.36328125 23.71875 C-6.372491 22.67787231 -6.38170074 21.63699463 -6.39118958 20.5645752 C-6.34926892 13.89278616 -6.14309532 6.42357987 -1.39595032 1.25280762 C-0.93528671 0.8393811 -0.47462311 0.42595459 0 0 Z " fill="#C39F5C" transform="translate(7,5)"/>
<path d="M0 0 C4.45555054 1.5994284 4.45555054 1.5994284 6.4375 3.875 C6.95373541 9.12339332 6.41397053 12.93382367 4.4375 17.875 C3.7775 17.875 3.1175 17.875 2.4375 17.875 C2.19 18.41125 1.9425 18.9475 1.6875 19.5 C-2.41964286 27.30357143 -2.41964286 27.30357143 -6.3125 29.25 C-7.055 29.45625 -7.7975 29.6625 -8.5625 29.875 C-8.5625 30.535 -8.5625 31.195 -8.5625 31.875 C-9.99804025 32.38059908 -11.4360202 32.8792749 -12.875 33.375 C-13.67550781 33.6534375 -14.47601563 33.931875 -15.30078125 34.21875 C-17.5625 34.875 -17.5625 34.875 -20.5625 34.875 C-20.8925 36.195 -21.2225 37.515 -21.5625 38.875 C-23.2125 38.545 -24.8625 38.215 -26.5625 37.875 C-26.5625 38.865 -26.5625 39.855 -26.5625 40.875 C-32.19892076 42.95802506 -37.70545619 43.65668815 -43.5625 41.875 C-46.16776241 39.43964601 -46.54253693 38.22102651 -46.75 34.625 C-46.6571875 33.26375 -46.6571875 33.26375 -46.5625 31.875 C-45.09490234 31.92720703 -45.09490234 31.92720703 -43.59765625 31.98046875 C-29.58751133 32.26976378 -18.55459911 28.96031311 -8.00390625 19.33984375 C-4.80067468 16.08452712 -3.67398013 13.79869247 -3.125 9.25 C-3.21477113 5.80941306 -3.21477113 5.80941306 -5.5625 3.9375 C-6.2225 3.586875 -6.8825 3.23625 -7.5625 2.875 C-3.31135845 -0.16152968 -3.31135845 -0.16152968 0 0 Z " fill="#81590D" transform="translate(51.5625,39.125)"/>
<path d="M0 0 C7.89568646 0.20274231 14.23502427 4.68290931 20.8125 8.625 C22.4400995 9.58724748 24.06770387 10.54948672 25.6953125 11.51171875 C29.1122626 13.54189515 32.51519954 15.59343344 35.91015625 17.66015625 C39.00121772 19.540224 42.10746018 21.38411051 45.24609375 23.18359375 C45.92607422 23.57748291 46.60605469 23.97137207 47.30664062 24.37719727 C48.55144045 25.09639756 49.80107339 25.80733512 51.05664062 26.50756836 C55.73695422 29.23527135 59.70786347 32.55533166 61.58984375 37.78515625 C61.94055404 41.95091021 61.78469355 44.91263566 59.8125 48.625 C58.85179566 45.74288698 58.70668117 43.92649956 58.75 40.9375 C58.75902344 40.12925781 58.76804687 39.32101563 58.77734375 38.48828125 C58.78894531 37.87339844 58.80054687 37.25851563 58.8125 36.625 C57.3275 36.13 57.3275 36.13 55.8125 35.625 C55.8125 34.635 55.8125 33.645 55.8125 32.625 C55.1525 32.625 54.4925 32.625 53.8125 32.625 C53.8125 31.965 53.8125 31.305 53.8125 30.625 C53.1525 30.625 52.4925 30.625 51.8125 30.625 C51.8125 29.965 51.8125 29.305 51.8125 28.625 C41.95488545 26.23723085 35.21194444 27.01838006 25.8125 30.625 C23.81505462 31.29928214 21.81575977 31.96819352 19.8125 32.625 C19.8125 33.285 19.8125 33.945 19.8125 34.625 C16.01398423 36.74510182 13.21117782 38.23592748 8.8125 37.625 C8.1525 36.965 7.4925 36.305 6.8125 35.625 C6.90796708 32.09271813 7.71444115 30.73667814 10.0625 28.0625 C11.81114669 26.51256316 13.60012633 25.00615074 15.4375 23.5625 C17.76070228 21.66725603 19.35195058 20.23861474 20.8125 17.625 C20.85986826 15.62556102 20.86425378 13.62433027 20.8125 11.625 C18.52120707 10.31184387 16.2294845 8.99944807 13.9375 7.6875 C13.28652344 7.31431641 12.63554687 6.94113281 11.96484375 6.55664062 C7.19227453 3.8259438 4.67838738 2.49865247 -0.8125 2.5625 C-2.31683594 2.57603516 -2.31683594 2.57603516 -3.8515625 2.58984375 C-5.00785156 2.60724609 -5.00785156 2.60724609 -6.1875 2.625 C-3.85789062 0.29539062 -3.19916407 0.20363188 0 0 Z " fill="#C29B53" transform="translate(15.1875,2.375)"/>
<path d="M0 0 C0.66 0.33 1.32 0.66 2 1 C1.2575 1.6496875 1.2575 1.6496875 0.5 2.3125 C-1.33218192 3.99740483 -1.33218192 3.99740483 -1 7 C-0.38511719 7.17015625 0.22976562 7.3403125 0.86328125 7.515625 C7.40495868 9.4770849 7.40495868 9.4770849 10.0625 11.8125 C11.30860897 14.7200876 11.33322926 16.86764494 11 20 C9 23 9 23 5.9375 24 C4.968125 24.33 3.99875 24.66 3 25 C2.67 25.99 2.34 26.98 2 28 C1.34 28 0.68 28 0 28 C-0.28875 28.598125 -0.5775 29.19625 -0.875 29.8125 C-2 32 -2 32 -4 35 C-4.05840224 30.81255925 -4.09373166 26.62522435 -4.125 22.4375 C-4.14175781 21.25607422 -4.15851562 20.07464844 -4.17578125 18.85742188 C-4.23895045 7.58171914 -4.23895045 7.58171914 -2 2 C-1.34 1.34 -0.68 0.68 0 0 Z " fill="#C0984C" transform="translate(7,5)"/>
<path d="M0 0 C4.45555054 1.5994284 4.45555054 1.5994284 6.4375 3.875 C6.95373541 9.12339332 6.41397053 12.93382367 4.4375 17.875 C3.7775 17.875 3.1175 17.875 2.4375 17.875 C2.19 18.41125 1.9425 18.9475 1.6875 19.5 C-2.4853243 27.42836617 -2.4853243 27.42836617 -6.125 28.9375 C-8.5625 28.875 -8.5625 28.875 -10.375 27.4375 C-10.766875 26.921875 -11.15875 26.40625 -11.5625 25.875 C-10.18658154 21.8619045 -8.28531449 19.1083422 -5.5625 15.875 C-3.09306471 12.17084707 -3.09336911 10.25355495 -3.5625 5.875 C-5.42374923 3.89260473 -5.42374923 3.89260473 -7.5625 2.875 C-3.31135845 -0.16152968 -3.31135845 -0.16152968 0 0 Z " fill="#5C3C04" transform="translate(51.5625,39.125)"/>
<path d="M0 0 C1.0209375 0.804375 1.0209375 0.804375 2.0625 1.625 C2.0625 2.285 2.0625 2.945 2.0625 3.625 C3.0525 3.955 4.0425 4.285 5.0625 4.625 C5.48972116 8.89721159 5.46146684 11.66825808 2.8125 15.0625 C0.0625 17.625 0.0625 17.625 -3.9375 17.625 C-3.958125 16.8825 -3.97875 16.14 -4 15.375 C-5.16985817 11.94341603 -6.8564335 11.08488828 -10.015625 9.47265625 C-12.60410298 8.33099015 -15.22364208 7.41929988 -17.9375 6.625 C-17.37600643 3.36833728 -16.56520014 1.66876677 -13.9375 -0.375 C-9.35409169 -2.17562469 -4.41882129 -2.06838444 0 0 Z " fill="#6B4807" transform="translate(22.9375,5.375)"/>
<path d="M0 0 C7.89250134 0.20266052 14.23920736 4.68015646 20.8125 8.625 C21.63234375 9.11210449 22.4521875 9.59920898 23.296875 10.10107422 C27.5733169 12.64341253 31.83624225 15.20619773 36.0859375 17.79296875 C40.59646608 20.52420905 45.18389413 23.09999084 49.8125 25.625 C45.23684224 27.15021925 42.37578509 24.89311757 38.1875 22.875 C37.39859375 22.5140625 36.6096875 22.153125 35.796875 21.78125 C35.04664063 21.42546875 34.29640625 21.0696875 33.5234375 20.703125 C32.83556152 20.37731445 32.14768555 20.05150391 31.43896484 19.71582031 C29.8125 18.625 29.8125 18.625 28.8125 15.625 C27.8225 15.625 26.8325 15.625 25.8125 15.625 C24.77969285 14.65892061 23.78255974 13.65406953 22.8125 12.625 C21.59877224 11.83918588 20.355145 11.09818864 19.08984375 10.3984375 C18.38666016 10.0065625 17.68347656 9.6146875 16.95898438 9.2109375 C16.23001953 8.81132812 15.50105469 8.41171875 14.75 8 C14.01716797 7.59265625 13.28433594 7.1853125 12.52929688 6.765625 C7.72087284 4.09869377 4.80059365 2.49723147 -0.8125 2.5625 C-2.31683594 2.57603516 -2.31683594 2.57603516 -3.8515625 2.58984375 C-5.00785156 2.60724609 -5.00785156 2.60724609 -6.1875 2.625 C-3.85789062 0.29539062 -3.19916407 0.20363188 0 0 Z " fill="#CEC5B3" transform="translate(15.1875,2.375)"/>
<path d="M0 0 C-3.29718193 2.0055489 -6.61496591 3.97428569 -9.9375 5.9375 C-10.86369141 6.50146484 -11.78988281 7.06542969 -12.74414062 7.64648438 C-18.66206443 11.11418008 -23.10565757 12.89890994 -30 13 C-30.99 12.67 -31.98 12.34 -33 12 C-33.33 11.01 -33.66 10.02 -34 9 C-33.43152344 9.01160156 -32.86304688 9.02320312 -32.27734375 9.03515625 C-27.39329516 9.09223194 -22.81496035 8.81956772 -18 8 C-18 7.01 -18 6.02 -18 5 C-16.35 5 -14.7 5 -13 5 C-12.67 4.01 -12.34 3.02 -12 2 C-9.78515625 1.015625 -9.78515625 1.015625 -7.0625 0.25 C-6.16660156 -0.01296875 -5.27070312 -0.2759375 -4.34765625 -0.546875 C-2 -1 -2 -1 0 0 Z " fill="#AD9E82" transform="translate(43,72)"/>
<path d="M0 0 C2.44323037 2.44323037 2.68989682 3.588865 3 7 C2.2196877 9.84256623 1.31627777 12.36744446 0 15 C-2.375 15.8125 -2.375 15.8125 -5 16 C-6.8125 14.5625 -6.8125 14.5625 -8 13 C-6.62408154 8.9869045 -4.72281449 6.2333422 -2 3 C-1.34 2.01 -0.68 1.02 0 0 Z " fill="#67470A" transform="translate(48,52)"/>
<path d="M0 0 C-2.17424117 2.50037734 -3.73045798 3.43628586 -7 4 C-7.33 5.32 -7.66 6.64 -8 8 C-6.35 8.99 -4.7 9.98 -3 11 C-3.33 11.66 -3.66 12.32 -4 13 C-4.70125 12.54625 -5.4025 12.0925 -6.125 11.625 C-9.02984591 9.98313057 -11.8139348 8.96322901 -15 8 C-14.43850643 4.74333728 -13.62770014 3.04376677 -11 1 C-7.44656135 -0.39599376 -3.76814664 -0.07246436 0 0 Z " fill="#815F1E" transform="translate(20,4)"/>
<path d="M0 0 C0.33 0 0.66 0 1 0 C1.01981934 0.62044189 1.03963867 1.24088379 1.06005859 1.88012695 C1.15531845 4.69134537 1.26499302 7.50182166 1.375 10.3125 C1.4059375 11.28896484 1.436875 12.26542969 1.46875 13.27148438 C1.50742188 14.20927734 1.54609375 15.14707031 1.5859375 16.11328125 C1.6173584 16.97735596 1.6487793 17.84143066 1.68115234 18.73168945 C1.87188037 21.27742445 1.87188037 21.27742445 4 24 C3.34 24 2.68 24 2 24 C2 25.98 2 27.96 2 30 C2.66 30.33 3.32 30.66 4 31 C5.0409066 32.64142963 6.04504326 34.30712215 7 36 C3.59394043 34.59059604 1.86965298 33.1888833 0 30 C-0.34057617 26.79199219 -0.34057617 26.79199219 -0.29296875 23.046875 C-0.28872391 22.38665344 -0.28447906 21.72643188 -0.28010559 21.04620361 C-0.26337435 18.94704609 -0.22573551 16.84886504 -0.1875 14.75 C-0.17244584 13.32293058 -0.15875871 11.89584604 -0.14648438 10.46875 C-0.11349001 6.97885183 -0.06174743 3.4895213 0 0 Z " fill="#AE925F" transform="translate(3,47)"/>
<path d="M0 0 C5.04819565 2.11319818 7.97231803 4.41522444 11 9 C12.41249039 13.67772793 12.32096459 17.63112548 10 22 C9.03929566 19.11788698 8.89418117 17.30149956 8.9375 14.3125 C8.94652344 13.50425781 8.95554687 12.69601563 8.96484375 11.86328125 C8.97644531 11.24839844 8.98804687 10.63351563 9 10 C8.01 9.67 7.02 9.34 6 9 C6 8.01 6 7.02 6 6 C5.34 6 4.68 6 4 6 C4 5.34 4 4.68 4 4 C3.34 4 2.68 4 2 4 C2 3.34 2 2.68 2 2 C1.34 2 0.68 2 0 2 C0 1.34 0 0.68 0 0 Z " fill="#CDBC9D" transform="translate(65,29)"/>
<path d="M0 0 C2.31 0 4.62 0 7 0 C4.395095 2.91136441 1.38971637 4.79313877 -1.9375 6.8125 C-2.97777344 7.45832031 -4.01804687 8.10414062 -5.08984375 8.76953125 C-8 10 -8 10 -10.37890625 9.19921875 C-10.91386719 8.80347656 -11.44882812 8.40773438 -12 8 C-9.35261084 6.5393715 -8.10551666 6 -5 6 C-4.67 5.01 -4.34 4.02 -4 3 C-3.01 3 -2.02 3 -1 3 C-0.67 2.01 -0.34 1.02 0 0 Z " fill="#BEA87F" transform="translate(53,61)"/>
<path d="M0 0 C-2 2 -2 2 -5.125 2.125 C-6.07375 2.08375 -7.0225 2.0425 -8 2 C-8 2.66 -8 3.32 -8 4 C-10.77457153 6.4662858 -13.58902164 7.63560866 -17 9 C-18.36365283 9.95824253 -19.70794169 10.94721175 -21 12 C-21 11.01 -21 10.02 -21 9 C-22.32 8.67 -23.64 8.34 -25 8 C-24.67 7.34 -24.34 6.68 -24 6 C-23.67 6.33 -23.34 6.66 -23 7 C-18.92922882 7.34892324 -15.80024093 6.41404314 -12 5 C-12 4.34 -12 3.68 -12 3 C-10.5682384 2.30062798 -9.12932968 1.61587282 -7.6875 0.9375 C-6.88699219 0.55464844 -6.08648437 0.17179687 -5.26171875 -0.22265625 C-3 -1 -3 -1 0 0 Z " fill="#B48328" transform="translate(47,32)"/>
<path d="M0 0 C0.66 0.33 1.32 0.66 2 1 C1.2575 1.6496875 1.2575 1.6496875 0.5 2.3125 C-1.33218192 3.99740483 -1.33218192 3.99740483 -1 7 C0.65 7.33 2.3 7.66 4 8 C4 8.33 4 8.66 4 9 C2.02 9.66 0.04 10.32 -2 11 C-2.33 18.92 -2.66 26.84 -3 35 C-3.33 35 -3.66 35 -4 35 C-4.05840224 30.81255925 -4.09373166 26.62522435 -4.125 22.4375 C-4.14175781 21.25607422 -4.15851562 20.07464844 -4.17578125 18.85742188 C-4.23895045 7.58171914 -4.23895045 7.58171914 -2 2 C-1.34 1.34 -0.68 0.68 0 0 Z " fill="#B0945D" transform="translate(7,5)"/>
<path d="M0 0 C4.29 0 8.58 0 13 0 C13 0.99 13 1.98 13 3 C11.56359829 3.19573608 10.12580496 3.38127816 8.6875 3.5625 C7.88699219 3.66691406 7.08648437 3.77132812 6.26171875 3.87890625 C4 4 4 4 1 3 C0.67 2.01 0.34 1.02 0 0 Z " fill="#B19C77" transform="translate(9,81)"/>
<path d="M0 0 C0 0.99 0 1.98 0 3 C-1.96875 4.60546875 -1.96875 4.60546875 -4.5 6.1875 C-5.3353125 6.71730469 -6.170625 7.24710938 -7.03125 7.79296875 C-7.6809375 8.19128906 -8.330625 8.58960938 -9 9 C-9.66 8.67 -10.32 8.34 -11 8 C-10.01 7.67 -9.02 7.34 -8 7 C-8 5.68 -8 4.36 -8 3 C-5.36 2.01 -2.72 1.02 0 0 Z " fill="#C9B58E" transform="translate(73,51)"/>
<path d="M0 0 C4.95 0.33 9.9 0.66 15 1 C15 1.33 15 1.66 15 2 C11.37 2 7.74 2 4 2 C3.67 2.66 3.34 3.32 3 4 C2.67 4.66 2.34 5.32 2 6 C1.34 6 0.68 6 0 6 C0 4.02 0 2.04 0 0 Z " fill="#9F6F17" transform="translate(5,71)"/>
<path d="M0 0 C0.99 0.495 0.99 0.495 2 1 C2 2.65 2 4.3 2 6 C3.65 5.67 5.3 5.34 7 5 C6.3125 6.875 6.3125 6.875 5 9 C3.35 9.66 1.7 10.32 0 11 C0 7.37 0 3.74 0 0 Z " fill="#916716" transform="translate(17,17)"/>
<path d="M0 0 C1.98 0.99 3.96 1.98 6 3 C5.57730231 6.41943506 5.08008783 9.72174346 4 13 C1.375 14.625 1.375 14.625 -1 15 C-0.2575 13.9790625 -0.2575 13.9790625 0.5 12.9375 C2.30365111 9.40534991 2.23021353 6.91363009 2 3 C1.34 2.67 0.68 2.34 0 2 C0 1.34 0 0.68 0 0 Z " fill="#926E25" transform="translate(25,7)"/>
<path d="M0 0 C0.33 1.32 0.66 2.64 1 4 C-1.25 5.625 -1.25 5.625 -4 7 C-6.3125 6.1875 -6.3125 6.1875 -8 5 C-5.35261084 3.5393715 -4.10551666 3 -1 3 C-0.67 2.01 -0.34 1.02 0 0 Z " fill="#9F8D68" transform="translate(49,64)"/>
<path d="M0 0 C1.67542976 0.28604898 3.34385343 0.61781233 5 1 C3.68 1.99 2.36 2.98 1 4 C1.66 4.66 2.32 5.32 3 6 C1.02 6 -0.96 6 -3 6 C-1.125 1.125 -1.125 1.125 0 0 Z " fill="#A57624" transform="translate(44,38)"/>
<path d="M0 0 C1.98 0.495 1.98 0.495 4 1 C4 2.32 4 3.64 4 5 C2.35 4.67 0.7 4.34 -1 4 C-0.67 2.68 -0.34 1.36 0 0 Z " fill="#916215" transform="translate(6,8)"/>
<path d="M0 0 C0.66 0 1.32 0 2 0 C2 0.99 2 1.98 2 3 C3.32 2.67 4.64 2.34 6 2 C6 2.66 6 3.32 6 4 C4.865625 4.12375 3.73125 4.2475 2.5625 4.375 C0.7990625 4.684375 0.7990625 4.684375 -1 5 C-1.33 5.66 -1.66 6.32 -2 7 C-2.66 6.67 -3.32 6.34 -4 6 C-2.7260411 3.96166576 -1.38938077 1.96147874 0 0 Z " fill="#9E7020" transform="translate(54,57)"/>
<path d="M0 0 C-2 2 -2 2 -5.125 2.125 C-6.07375 2.08375 -7.0225 2.0425 -8 2 C-8 2.66 -8 3.32 -8 4 C-9.32 3.67 -10.64 3.34 -12 3 C-10.5682384 2.30062798 -9.12932968 1.61587282 -7.6875 0.9375 C-6.48673828 0.36322266 -6.48673828 0.36322266 -5.26171875 -0.22265625 C-3 -1 -3 -1 0 0 Z " fill="#B98930" transform="translate(47,32)"/>
<path d="M0 0 C1.67542976 0.28604898 3.34385343 0.61781233 5 1 C4.34 1.66 3.68 2.32 3 3 C2.01 4.485 2.01 4.485 1 6 C0.34 6.66 -0.32 7.32 -1 8 C-1.04241723 5.66705225 -1.04092937 3.33297433 -1 1 C-0.67 0.67 -0.34 0.34 0 0 Z " fill="#B1832C" transform="translate(30,11)"/>
<path d="M0 0 C0.556875 0.226875 1.11375 0.45375 1.6875 0.6875 C1.06875 0.97625 0.45 1.265 -0.1875 1.5625 C-2.44575765 2.62470042 -2.44575765 2.62470042 -4.3125 4.6875 C-5.3025 4.0275 -6.2925 3.3675 -7.3125 2.6875 C-2.88173077 -0.38942308 -2.88173077 -0.38942308 0 0 Z " fill="#785107" transform="translate(51.3125,39.3125)"/>
<path d="M0 0 C0.33 0 0.66 0 1 0 C1 1.65 1 3.3 1 5 C0.34 5 -0.32 5 -1 5 C-0.67 3.35 -0.34 1.7 0 0 Z " fill="#DBD5C4" transform="translate(79,29)"/>
</svg>
